<?xml version="1.0" encoding="utf-8" standalone="no"?>
<!DOCTYPE svg PUBLIC "-//W3C//DTD SVG 1.1//EN"
  "http://www.w3.org/Graphics/SVG/1.1/DTD/svg11.dtd">
<svg xmlns:xlink="http://www.w3.org/1999/xlink" width="720pt" height="720pt" viewBox="0 0 720 720" xmlns="http://www.w3.org/2000/svg" version="1.1">
 <metadata>
  <rdf:RDF xmlns:dc="http://purl.org/dc/elements/1.1/" xmlns:cc="http://creativecommons.org/ns#" xmlns:rdf="http://www.w3.org/1999/02/22-rdf-syntax-ns#">
   <cc:Work>
    <dc:type rdf:resource="http://purl.org/dc/dcmitype/StillImage"/>
    <dc:date>2024-04-18T12:17:59.355043</dc:date>
    <dc:format>image/svg+xml</dc:format>
    <dc:creator>
     <cc:Agent>
      <dc:title>Matplotlib v3.8.4, https://matplotlib.org/</dc:title>
     </cc:Agent>
    </dc:creator>
   </cc:Work>
  </rdf:RDF>
 </metadata>
 <defs>
  <style type="text/css">*{stroke-linejoin: round; stroke-linecap: butt}</style>
 </defs>
 <g id="figure_1">
  <g id="patch_1">
   <path d="M 0 720 
L 720 720 
L 720 0 
L 0 0 
z
" style="fill: #ffffff"/>
  </g>
  <g id="axes_1">
   <g id="PathCollection_1">
    <defs>
     <path id="C0_0_18bdef58cb" d="M 0 63.245553 
C 16.772917 63.245553 32.861116 56.581603 44.72136 44.72136 
C 56.581603 32.861116 63.245553 16.772917 63.245553 -0 
C 63.245553 -16.772917 56.581603 -32.861116 44.72136 -44.72136 
C 32.861116 -56.581603 16.772917 -63.245553 0 -63.245553 
C -16.772917 -63.245553 -32.861116 -56.581603 -44.72136 -44.72136 
C -56.581603 -32.861116 -63.245553 -16.772917 -63.245553 0 
C -63.245553 16.772917 -56.581603 32.861116 -44.72136 44.72136 
C -32.861116 56.581603 -16.772917 63.245553 0 63.245553 
z
"/>
    </defs>
    <g clip-path="url(#pca3f00f8cb)">
     <use xlink:href="#C0_0_18bdef58cb" x="414.997837" y="188.215589" style="fill: #e200ff; fill-opacity: 0.9"/>
    </g>
    <g clip-path="url(#pca3f00f8cb)">
     <use xlink:href="#C0_0_18bdef58cb" x="251.904424" y="502.737329" style="fill: #36ff00; fill-opacity: 0.9"/>
    </g>
    <g clip-path="url(#pca3f00f8cb)">
     <use xlink:href="#C0_0_18bdef58cb" x="523.378777" y="466.351606" style="fill: #00aaff; fill-opacity: 0.9"/>
    </g>
    <g clip-path="url(#pca3f00f8cb)">
     <use xlink:href="#C0_0_18bdef58cb" x="269.941676" y="211.353877" style="fill: #ff5300; fill-opacity: 0.9"/>
    </g>
    <g clip-path="url(#pca3f00f8cb)">
     <use xlink:href="#C0_0_18bdef58cb" x="547.142128" y="325.509132" style="fill: #1400ff; fill-opacity: 0.9"/>
    </g>
   </g>
   <g id="Quiver_1">
    <path d="M 415.850642 186.304757 
L 444.926315 199.281237 
L 444.721092 194.606768 
L 461.271 208.867314 
L 439.604263 206.071761 
L 443.220705 203.102902 
L 414.145032 190.126421 
L 415.850642 186.304757 
" clip-path="url(#pca3f00f8cb)"/>
   </g>
   <g id="Quiver_2">
    <path d="M 250.312781 504.095721 
L 229.731023 479.979837 
L 227.906129 484.288264 
L 219.097142 464.296656 
L 237.455988 476.137914 
L 232.91431 477.263054 
L 253.496068 501.378938 
L 250.312781 504.095721 
" clip-path="url(#pca3f00f8cb)"/>
   </g>
   <g id="Quiver_3">
    <path d="M 525.041726 467.621707 
L 505.808215 492.804228 
L 510.404214 493.681481 
L 492.714356 506.500668 
L 500.42652 486.060874 
L 502.482317 490.264026 
L 521.715828 465.081505 
L 525.041726 467.621707 
" clip-path="url(#pca3f00f8cb)"/>
   </g>
   <g id="Quiver_4">
    <path d="M 268.819505 209.587726 
L 295.659932 192.533949 
L 291.649439 190.123818 
L 312.677461 184.200563 
L 298.382464 200.720723 
L 297.904273 196.066251 
L 271.063846 213.120027 
L 268.819505 209.587726 
" clip-path="url(#pca3f00f8cb)"/>
   </g>
   <g id="Quiver_5">
    <path d="M 549.185283 325.057384 
L 556.003619 355.895214 
L 559.638181 352.948564 
L 558.026193 374.735352 
L 547.379254 355.65905 
L 551.91731 356.798709 
L 545.098974 325.96088 
L 549.185283 325.057384 
" clip-path="url(#pca3f00f8cb)"/>
   </g>
   <g id="line2d_1">
    <path d="M 622.636364 363.6 
L 622.410886 352.976554 
L 621.734852 342.371996 
L 620.609465 331.80518 
L 619.036726 321.294895 
L 617.019431 310.859826 
L 614.561166 300.518528 
L 611.666302 290.289386 
L 608.339987 280.190588 
L 604.588134 270.240089 
L 600.417413 260.45558 
L 595.835241 250.854458 
L 590.849764 241.453794 
L 585.469847 232.270301 
L 579.705053 223.320308 
L 573.565634 214.619726 
L 567.062505 206.184027 
L 560.207228 198.028207 
L 553.011991 190.166767 
L 545.489588 182.613686 
L 537.653393 175.382392 
L 529.517338 168.485741 
L 521.095889 161.935997 
L 512.404019 155.744804 
L 503.457183 149.92317 
L 494.271286 144.481446 
L 484.862661 139.429306 
L 475.248037 134.775734 
L 465.444507 130.529003 
L 455.469503 126.696663 
L 445.34076 123.28553 
L 435.076285 120.301666 
L 424.694329 117.750378 
L 414.21335 115.636202 
L 403.651984 113.962896 
L 393.029008 112.733436 
L 382.363309 111.950007 
L 371.67385 111.614003 
L 360.979638 111.726021 
L 350.299685 112.285862 
L 339.652981 113.29253 
L 329.058455 114.744236 
L 318.534944 116.638398 
L 308.101157 118.971648 
L 297.775647 121.739839 
L 287.576771 124.938049 
L 277.522662 128.560591 
L 267.631197 132.601024 
L 257.919961 137.052165 
L 248.406222 141.9061 
L 239.106895 147.154199 
L 230.038512 152.78713 
L 221.217198 158.794879 
L 212.658636 165.166764 
L 204.378044 171.891456 
L 196.390143 178.956998 
L 188.709137 186.350829 
L 181.348681 194.059803 
L 174.321862 202.070213 
L 167.641174 210.367818 
L 161.318495 218.937863 
L 155.365065 227.765112 
L 149.791471 236.833871 
L 144.607622 246.128015 
L 139.822734 255.631021 
L 135.445314 265.325991 
L 131.483147 275.195689 
L 127.943276 285.222566 
L 124.831995 295.388796 
L 122.154835 305.676303 
L 119.916558 316.066796 
L 118.121141 326.541801 
L 116.771778 337.082694 
L 115.870868 347.670734 
L 115.420012 358.287096 
L 115.420012 368.912904 
L 115.870868 379.529266 
L 116.771778 390.117306 
L 118.121141 400.658199 
L 119.916558 411.133204 
L 122.154835 421.523697 
L 124.831995 431.811204 
L 127.943276 441.977434 
L 131.483147 452.004311 
L 135.445314 461.874009 
L 139.822734 471.568979 
L 144.607622 481.071985 
L 149.791471 490.366129 
L 155.365065 499.434888 
L 161.318495 508.262137 
L 167.641174 516.832182 
L 174.321862 525.129787 
L 181.348681 533.140197 
L 188.709137 540.849171 
L 196.390143 548.243002 
L 204.378044 555.308544 
L 212.658636 562.033236 
L 221.217198 568.405121 
L 230.038512 574.41287 
L 239.106895 580.045801 
L 248.406222 585.2939 
L 257.919961 590.147835 
L 267.631197 594.598976 
L 277.522662 598.639409 
L 287.576771 602.261951 
L 297.775647 605.460161 
L 308.101157 608.228352 
L 318.534944 610.561602 
L 329.058455 612.455764 
L 339.652981 613.90747 
L 350.299685 614.914138 
L 360.979638 615.473979 
L 371.67385 615.585997 
L 382.363309 615.249993 
L 393.029008 614.466564 
L 403.651984 613.237104 
L 414.21335 611.563798 
L 424.694329 609.449622 
L 435.076285 606.898334 
L 445.34076 603.91447 
L 455.469503 600.503337 
L 465.444507 596.670997 
L 475.248037 592.424266 
L 484.862661 587.770694 
L 494.271286 582.718554 
L 503.457183 577.27683 
L 512.404019 571.455196 
L 521.095889 565.264003 
L 529.517338 558.714259 
L 537.653393 551.817608 
L 545.489588 544.586314 
L 553.011991 537.033233 
L 560.207228 529.171793 
L 567.062505 521.015973 
L 573.565634 512.580274 
L 579.705053 503.879692 
L 585.469847 494.929699 
L 590.849764 485.746206 
L 595.835241 476.345542 
L 600.417413 466.74442 
L 604.588134 456.959911 
L 608.339987 447.009412 
L 611.666302 436.910614 
L 614.561166 426.681472 
L 617.019431 416.340174 
L 619.036726 405.905105 
L 620.609465 395.39482 
L 621.734852 384.828004 
L 622.410886 374.223446 
L 622.636364 363.6 
L 622.636364 363.6 
" clip-path="url(#pca3f00f8cb)" style="fill: none; stroke: #000000; stroke-width: 10; stroke-linecap: square"/>
   </g>
  </g>
 </g>
 <defs>
  <clipPath id="pca3f00f8cb">
   <rect x="90" y="86.4" width="558" height="554.4"/>
  </clipPath>
 </defs>
</svg>
